<svg width="246" height="18" viewBox="0 0 246 18" fill="none" xmlns="http://www.w3.org/2000/svg">
<path d="M19.5549 2.18798C25.1089 1.51641 35.8742 1.95965 43.4798 2.29879C48.4393 2.51995 54.235 3.30279 58.3786 3.64194C63.2036 4.03685 70.3394 4.64594 75.6146 4.98509C80.4423 5.29547 86.4773 5.76747 95.0264 6.10326C102.463 6.39533 116.208 6.21743 123.619 6.10662C131.7 5.98578 141.687 5.54585 156.123 5.43504C161.25 5.32423 161.915 5.10261 162.701 4.98845C163.487 4.87428 164.373 4.87428 165.287 4.87428" stroke="black" stroke-width="2" stroke-linecap="round"/>
<path d="M172.674 4.8743C172.674 5.09592 172.674 5.31754 172.563 5.76413C172.452 6.21073 172.231 6.87559 171.331 8.90374" stroke="black" stroke-width="2" stroke-linecap="round"/>
<path d="M179.39 6.21744C179.39 7.99039 179.168 9.79021 178.611 11.5766C178.275 12.4765 177.832 13.363 177.492 14.1521C177.153 14.9412 176.932 15.606 176.032 16.9626" stroke="black" stroke-width="2" stroke-linecap="round"/>
<path d="M191 7.51587C192.017 7.51587 193.231 7.34912 196.806 7.09648C200.064 6.86623 206.258 7.01058 209.606 7.09395C213.271 7.18522 215.176 7.51587 217.727 7.59924C218.699 7.63101 219.015 7.84936 221.926 7.93526C224.838 8.02116 230.336 8.02116 233.294 7.93778C237.022 7.83273 237.911 7.18238 239.949 6.92721C240.402 6.84383 240.592 6.67709 241.321 6.59119C242.051 6.50529 243.315 6.50529 245 6" stroke="black" stroke-width="2" stroke-linecap="round"/>
<path d="M1.14383 1.51642H11.2174" stroke="black" stroke-width="2" stroke-linecap="round"/>
</svg>
