<svg width="183" height="49" viewBox="0 0 183 49" fill="none" xmlns="http://www.w3.org/2000/svg">
<path d="M83.9688 0.925659C89.3574 0.73974 94.7457 1.01249 100.133 1.75378C105.4 2.47884 110.671 2.67527 115.938 2.33972C121.278 1.99947 126.621 1.71454 131.961 1.48816C137.299 1.26187 142.638 1.09107 147.977 0.964722C153.384 0.836765 158.756 1.3084 164.094 2.37878C169.559 3.47481 173.949 5.96777 177.195 9.8866C180.431 13.7924 182.178 18.5338 182.461 24.0585C182.743 29.5789 181.523 34.6334 178.789 39.1913C176.003 43.8358 171.827 46.5818 166.352 47.4022C161.09 48.1903 155.755 48.4122 150.352 48.0585C145.053 47.7116 139.752 47.6408 134.453 47.8475C129.122 48.0556 123.792 48.2661 118.461 48.4882C113.102 48.7114 107.741 48.7323 102.383 48.5428C97.0315 48.3536 91.6793 48.0088 86.3281 47.5116C81.0066 47.0171 75.6808 46.6196 70.3594 46.3163C65.1141 46.0173 59.8671 46.3921 54.6172 47.4491C49.1916 48.5418 43.7583 48.8564 38.3281 48.3788C33.0206 47.912 27.7134 47.6467 22.4062 47.5897C16.9193 47.5308 11.7997 46.2572 7.0625 43.7694C4.61492 42.4839 2.80772 40.7594 1.72656 38.5741C0.648327 36.3938 0.338284 33.8392 0.710938 30.9725C1.42176 25.5053 2.30923 20.4037 3.38281 15.6757C4.46431 10.9139 6.06418 7.37484 8.28906 5.24597C9.29836 4.28024 10.0705 3.56417 10.6016 3.12097C10.8567 2.90811 11.1031 2.72424 11.3047 2.60535C11.371 2.56625 11.583 2.43733 11.8516 2.41003C11.9889 2.39625 12.2755 2.40702 12.5547 2.60535C12.577 2.60881 12.6035 2.60925 12.6328 2.61316C12.9189 2.65132 13.3807 2.68766 14.0391 2.71472C15.348 2.76847 17.3303 2.7909 19.9922 2.77722C25.3218 2.7498 30.6547 2.69158 35.9844 2.60535C41.3305 2.51886 46.6773 2.53799 52.0234 2.66003C57.3146 2.7808 62.6066 2.57043 67.8984 2.02722C73.2541 1.47747 78.6128 1.11063 83.9688 0.925659ZM84.0312 2.91785C78.7217 3.10129 73.4115 3.46653 68.1016 4.0116C62.727 4.56328 57.3517 4.78274 51.9766 4.66003C46.6564 4.53859 41.3358 4.51927 36.0156 4.60535C30.6797 4.69167 25.3437 4.74976 20.0078 4.77722C17.3391 4.79095 15.3182 4.77038 13.9609 4.71472C13.2872 4.68706 12.7475 4.64829 12.3672 4.59753C12.2611 4.58337 12.154 4.5498 12.0469 4.52722C11.9994 4.56516 11.9433 4.60956 11.8828 4.66003C11.407 5.05724 10.6752 5.7313 9.67188 6.69128C7.86949 8.41588 6.38642 11.495 5.33594 16.121C4.27794 20.7804 3.39136 25.8165 2.6875 31.2303C2.35283 33.8048 2.65949 35.945 3.52344 37.6913C4.38522 39.4312 5.84847 40.878 7.99219 42.0038C12.4407 44.3398 17.2506 45.5341 22.4297 45.5897C27.7882 45.6473 33.1496 45.9154 38.5078 46.3866C43.7431 46.8467 48.9789 46.5434 54.2188 45.4882C59.6342 44.3975 65.0565 44.0073 70.4766 44.3163C75.8204 44.6209 81.1641 45.0228 86.5078 45.5194C91.8222 46.0133 97.139 46.3549 102.453 46.5428C107.76 46.7305 113.068 46.7171 118.375 46.496C123.708 46.2738 129.042 46.0557 134.375 45.8475C139.743 45.638 145.116 45.707 150.484 46.0585C155.747 46.4029 160.937 46.1921 166.055 45.4257C170.957 44.6913 174.601 42.2823 177.07 38.1678C179.591 33.9657 180.724 29.3041 180.461 24.16C180.198 19.0181 178.588 14.6993 175.656 11.16C172.735 7.63444 168.771 5.35619 163.703 4.33972C158.508 3.29788 153.282 2.83245 148.023 2.95691C142.696 3.08299 137.366 3.26233 132.039 3.48816C126.714 3.71393 121.388 4.00041 116.062 4.33972C110.664 4.68365 105.265 4.48085 99.8672 3.73816C94.59 3.01177 89.307 2.73565 84.0312 2.91785Z" fill="black"/>
</svg>
