<svg width="280" height="94" viewBox="0 0 280 94" fill="none" xmlns="http://www.w3.org/2000/svg">
<path d="M17 16.1839C17.2628 16.1839 17.5255 16.1839 25.2151 16.1839C32.9046 16.1839 48.013 16.1839 56.256 16.0665C64.4989 15.9491 65.4185 15.7143 68.06 15.5934C75.035 15.274 80.5548 15.2376 83.3296 14.8819C87.4083 14.359 90.5116 14.5261 96.0394 14.1704C100.908 13.8571 109.975 14.0495 114.842 14.1669C121.568 14.3291 124.745 15.2305 127.267 15.5898C129.937 15.9701 132.31 16.6535 135.228 17.0128C139.863 17.5834 145.447 18.0764 152.53 18.4357C154.079 18.5143 154.604 18.7879 159.736 18.9088C164.867 19.0298 174.589 19.0298 179.794 18.9124C187.252 18.7442 190.967 17.8487 193.553 17.4894C196.023 17.1463 199.193 16.4258 202.045 16.0665C204.783 15.7216 207.418 15.0028 221.839 14.8783C224.811 14.9957 225.205 15.2305 225.671 15.3515C226.137 15.4724 226.662 15.4724 228 16.1839" stroke="black" stroke-width="2" stroke-linecap="round"/>
<path d="M240 17.0748C240 16.8531 240 16.6315 240.111 16.0741C240.222 15.5167 240.443 14.6302 240.668 13.8411C240.893 13.052 241.115 12.3872 241.343 10.359" stroke="black" stroke-width="2" stroke-linecap="round"/>
<path d="M244.701 17.7463C246.037 17.3031 249.604 13.3005 253.196 8.47188C253.875 7.45781 254.318 6.57133 254.657 5.78223C254.996 4.99313 255.218 4.32827 255.446 3.64326" stroke="black" stroke-width="2" stroke-linecap="round"/>
<path d="M262.162 19.0895C262.605 19.0895 267.044 19.0895 273.646 19.4219C276.646 19.573 277.38 21.7691 278.162 23.1088C278.501 23.7838 278.723 24.4486 278.837 25.3452C278.951 26.2417 278.951 27.3498 278.951 28.4915" stroke="black" stroke-width="2" stroke-linecap="round"/>
<path d="M44.5549 78.188C50.1089 77.5164 60.8742 77.9596 68.4798 78.2988C73.4393 78.5199 79.235 79.3028 83.3786 79.6419C88.2036 80.0368 95.3394 80.6459 100.615 80.9851C105.442 81.2955 111.477 81.7675 120.026 82.1033C127.463 82.3953 141.208 82.2174 148.619 82.1066C156.7 81.9858 166.687 81.5459 181.123 81.435C186.25 81.3242 186.915 81.1026 187.701 80.9884C188.487 80.8743 189.373 80.8743 190.287 80.8743" stroke="black" stroke-width="2" stroke-linecap="round"/>
<path d="M197.674 80.8743C197.674 81.0959 197.674 81.3175 197.563 81.7641C197.452 82.2107 197.231 82.8756 196.331 84.9037" stroke="black" stroke-width="2" stroke-linecap="round"/>
<path d="M204.39 82.2174C204.39 83.9904 204.168 85.7902 203.611 87.5766C203.275 88.4765 202.832 89.363 202.492 90.1521C202.153 90.9412 201.932 91.606 201.032 92.9626" stroke="black" stroke-width="2" stroke-linecap="round"/>
<path d="M216 83.5159C217.017 83.5159 218.231 83.3491 221.806 83.0965C225.064 82.8662 231.258 83.0106 234.606 83.094C238.271 83.1852 240.176 83.5159 242.727 83.5992C243.699 83.631 244.015 83.8494 246.926 83.9353C249.838 84.0212 255.336 84.0212 258.294 83.9378C262.022 83.8327 262.911 83.1824 264.949 82.9272C265.402 82.8438 265.592 82.6771 266.321 82.5912C267.051 82.5053 268.315 82.5053 270 82" stroke="black" stroke-width="2" stroke-linecap="round"/>
<path d="M269.549 82.2174C271.551 82.2174 274.915 81.7742 276.033 80.7702C281.454 75.9026 276.493 61.4121 276.154 58.165C275.607 52.922 276.037 45.2943 276.822 42.383C277.158 38.5718 278.051 35.8923 278.837 32.981C278.951 32.0844 278.951 30.9763 278.951 29.8347" stroke="black" stroke-width="2" stroke-linecap="round"/>
<path d="M5.9966 19.7611C5.55336 19.3178 5.11012 18.8746 4.66016 18.3138C4.21021 17.753 3.76697 17.0882 3.31702 16.4133C2.86706 15.7383 2.42382 15.0735 1.29558 13.7169" stroke="black" stroke-width="2" stroke-linecap="round"/>
<path d="M8.68289 1.62854V15.7316" stroke="black" stroke-width="2" stroke-linecap="round"/>
<path d="M4.65345 23.1189C3.76026 25.7985 2.86707 28.4781 2.52792 31.7252C1.91159 37.6261 2.4104 46.6106 3.30695 49.8577C4.18963 53.0545 4.42512 56.6842 4.76426 60.4887C5.24241 65.8525 5.76827 73.4736 6.32903 77.1672C6.66146 77.9597 7.32632 78.4029 8.88773 78.6312C10.4491 78.8596 12.887 78.8596 15.3986 78.8596" stroke="black" stroke-width="2" stroke-linecap="round"/>
<path d="M26.1438 77.5164H36.2174" stroke="black" stroke-width="2" stroke-linecap="round"/>
</svg>
