<svg width="241" height="18" viewBox="0 0 241 18" fill="none" xmlns="http://www.w3.org/2000/svg">
<path d="M1 14.1839C1.26275 14.1839 1.52551 14.1839 9.21507 14.1839C16.9046 14.1839 32.013 14.1839 40.256 14.0665C48.4989 13.9491 49.4185 13.7143 52.06 13.5934C59.035 13.274 64.5548 13.2376 67.3296 12.8819C71.4083 12.359 74.5116 12.5261 80.0394 12.1704C84.9076 11.8571 93.9754 12.0495 98.8423 12.1669C105.568 12.3291 108.745 13.2305 111.267 13.5898C113.937 13.9701 116.31 14.6535 119.228 15.0128C123.863 15.5834 129.447 16.0764 136.53 16.4357C138.079 16.5143 138.604 16.7879 143.736 16.9088C148.867 17.0298 158.589 17.0298 163.794 16.9124C171.252 16.7442 174.967 15.8487 177.553 15.4894C180.023 15.1463 183.193 14.4258 186.045 14.0665C188.783 13.7216 191.418 13.0028 205.839 12.8783C208.811 12.9957 209.205 13.2305 209.671 13.3515C210.137 13.4724 210.662 13.4724 212 14.1839" stroke="black" stroke-width="2" stroke-linecap="round"/>
<path d="M224 15.0748C224 14.8531 224 14.6315 224.111 14.0741C224.222 13.5167 224.443 12.6302 224.668 11.8411C224.893 11.052 225.115 10.3872 225.343 8.35901" stroke="black" stroke-width="2" stroke-linecap="round"/>
<path d="M228.701 15.7463C230.037 15.3031 233.604 11.3005 237.196 6.47188C237.875 5.45781 238.318 4.57133 238.657 3.78223C238.996 2.99313 239.218 2.32827 239.446 1.64326" stroke="black" stroke-width="2" stroke-linecap="round"/>
</svg>
